<?xml version="1.0" encoding="utf-8"?>
<!-- Svg Vector Icons : http://www.onlinewebfonts.com/icon -->
<!DOCTYPE svg PUBLIC "-//W3C//DTD SVG 1.1//EN" "http://www.w3.org/Graphics/SVG/1.1/DTD/svg11.dtd">
<svg version="1.1" xmlns="http://www.w3.org/2000/svg" xmlns:xlink="http://www.w3.org/1999/xlink" x="0px" y="0px" viewBox="0 0 1000 1000" enable-background="new 0 0 1000 1000" xml:space="preserve">
<metadata> Svg Vector Icons : http://www.onlinewebfonts.com/icon </metadata>
<g><path d="M863.8,277.3H136.2C66.6,277.3,10,220.6,10,151.1C10,81.5,66.6,24.8,136.2,24.8h727.6c69.6,0,126.2,56.6,126.2,126.2C990,220.6,933.4,277.3,863.8,277.3z M136.2,84.2c-36.8,0-66.8,30-66.8,66.8c0,36.8,30,66.8,66.8,66.8h727.6c36.8,0,66.8-30,66.8-66.8c0-36.8-30-66.8-66.8-66.8H136.2z"/><path d="M863.8,975.2H136.2C66.6,975.2,10,918.5,10,848.9c0-69.6,56.6-126.2,126.2-126.2h727.6c69.6,0,126.2,56.6,126.2,126.2C990,918.5,933.4,975.2,863.8,975.2z M136.2,782.1c-36.8,0-66.8,30-66.8,66.8c0,36.8,30,66.8,66.8,66.8h727.6c36.8,0,66.8-30,66.8-66.8c0-36.8-30-66.8-66.8-66.8H136.2z"/><path d="M863.8,633.6H136.2C66.6,633.6,10,577,10,507.4c0-69.6,56.6-126.2,126.2-126.2h727.6c69.6,0,126.2,56.6,126.2,126.2C990,577,933.4,633.6,863.8,633.6z M136.2,440.6c-36.8,0-66.8,30-66.8,66.8c0,36.8,30,66.8,66.8,66.8h727.6c36.8,0,66.8-30,66.8-66.8c0-36.8-30-66.8-66.8-66.8H136.2z"/></g>
</svg>